# xmcd
#
# Track frame offsets:
#	150
#	8672
#	24340
#	49020
#	65982
#	77530
#	93867
#	104207
#	116032
#	130782
#	149790
#
# Disc length: 2308 seconds
#
# Revision: 1
# Processed by: cddbd v1.5PL3 Copyright (c) Steve Scherf et al.
# Submitted via: CDex 1.50Beta5
#
DISCID=9709020b
DTITLE=東儀秀樹 - 宇宙 未知への大紀行 オリジナルサウンドトラック
DYEAR=1900
DGENRE=Soundtrack
TTITLE0=星空につつまれて(TV-Size Edit)
TTITLE1=やさしい気持ち
TTITLE2=CLOUD
TTITLE3=Gentle Heart (Organ Version)
TTITLE4=惑星たちの道
TTITLE5=Under the Brilliant Stars
TTITLE6=Gentle Heart
TTITLE7=宙からの手紙
TTITLE8=星空につつまれて
TTITLE9=やさしい気持ち(TOGISM Version)
TTITLE10=星空につつまれて(TOGISM Version)
EXTD=
EXTT0=
EXTT1=
EXTT2=
EXTT3=
EXTT4=
EXTT5=
EXTT6=
EXTT7=
EXTT8=
EXTT9=
EXTT10=
PLAYORDER=
